{"title":"Automata.2014.720p.BRRip.x264.AC3-WiNTeaM","uid":11326365,"size":3029247265,"categoryP":"video","categoryS":"hd___movies","magnet":"?xt=urn:btih:4c1f0b32129e71b3972ea11a99eb24c839879033&amp;dn=Automata.2014.720p.BRRip.x264.AC3-WiNTeaM&amp;tr=udp%3A%2F%2Ftracker.openbittorrent.com%3A80&amp;tr=udp%3A%2F%2Fopen.demonii.com%3A1337&amp;tr=udp%3A%2F%2Ftracker.coppersurfer.tk%3A6969&amp;tr=udp%3A%2F%2Fexodus.desync.com%3A6969","seeders":0,"leechers":1,"uploader":"TvTeam","files":15,"time":1414629566,"description":" &lt;a href=&quot;http://www.torrenting.com&quot; rel=&quot;nofollow&quot; target=&quot;_NEW&quot;&gt;http://www.torrenting.com&lt;/a&gt;\n\nSign up is OPEN - for time being. Come and have fun.\n\n\n------------------------------------------------------------------------\n    __          ___ _   _ _______         __  __ \n             / (_)  | |__   __|       |  /  |\n        /  / / _|  | |  | | ___  __ _|   / |\n       /  / / | | . ` |  | |/ _ / _` | |/| |\n         /  /  | | |  |  | |  __/ (_| | |  | |\n        /  /   |_|_| _|  |_|___|__,_|_|  |_|      \n                                       since 2013\n    _____________________________________________\n    Proudly Presents:\n\nAutomata.2014.720p.BRRip.x264.AC3-WiNTeaM\n\nFormat                                   : Matroska\nFormat version                           : Version 4 / Version 2\nFile size                                : 2.79 GiB\nDuration                                 : 1h 49mn\nOverall bit rate                         : 3 637 Kbps\nMovie name                               : Automata.2014.720p.BRRip.x264.AC3-WiNTeaM\nEncoded date                             : UTC 2014-10-29 20:40:43\nWriting application                      : mkvmerge v7.3.0 ('Nouages') 64bit built on Oct 22 2014 18:53:34\nWriting library                          : libebml v1.3.0 + libmatroska v1.4.1\nRipped by                                : Micasxuxu@WiNTeaM\nVideo Source                             : Automata.2014.1080p.BluRay.x264-ROVERS\n_STATISTICS_WRITING_APP                  : mkvmerge v7.3.0 ('Nouages') 64bit built on Oct 22 2014 18:53:34\n_STATISTICS_WRITING_DATE_UTC             : 2014-10-29 20:40:43\n_STATISTICS_TAGS                         : BPS DURATION NUMBER_OF_FRAMES NUMBER_OF_BYTES\nDURATION                                 : 01:42:32.627000000\nNUMBER_OF_FRAMES                         : 939\nNUMBER_OF_BYTES                          : 31558\n\nVideo\nID                                       : 1\nFormat                                   : AVC\nFormat/Info                              : Advanced Video Codec\nFormat profile                           : &lt;a class=&quot;__cf_email__&quot; href=&quot;/cdn-cgi/l/email-protection&quot; data-cfemail=&quot;753d1c121d3539415b44&quot;&gt;[email&amp;#160;protected]&lt;/a&gt;&lt;script cf-hash='f9e31' type=&quot;text/javascript&quot;&gt;\n/* &lt;![CDATA[ */!function(){try{var t=&quot;currentScript&quot;in document?document.currentScript:function(){for(var t=document.getElementsByTagName(&quot;script&quot;),e=t.length;e--;)if(t[e].getAttribute(&quot;cf-hash&quot;))return t[e]}();if(t&amp;&amp;t.previousSibling){var e,r,n,i,c=t.previousSibling,a=c.getAttribute(&quot;data-cfemail&quot;);if(a){for(e=&quot;&quot;,r=parseInt(a.substr(0,2),16),n=2;a.length-n;n+=2)i=parseInt(a.substr(n,2),16)^r,e+=String.fromCharCode(i);e=document.createTextNode(e),c.parentNode.replaceChild(e,c)}}}catch(u){}}();/* ]]&gt; */&lt;/script&gt;\nFormat settings, CABAC                   : Yes\nFormat settings, ReFrames                : 5 frames\nCodec ID                                 : V_MPEG4/ISO/AVC\nDuration                                 : 1h 49mn\nBit rate                                 : 2 995 Kbps\nWidth                                    : 1 280 pixels\nHeight                                   : 544 pixels\nDisplay aspect ratio                     : 2.35:1\nFrame rate mode                          : Constant\nFrame rate                               : 23.976 fps\nColor space                              : YUV\nChroma subsampling                       : 4:2:0\nBit depth                                : 8 bits\nScan type                                : Progressive\nBits/(Pixel*Frame)                       : 0.179\nStream size                              : 2.25 GiB (80%)\nWriting library                          : x264 core 142 r2479 dd79a61\nEncoding settings                        : cabac=1 / ref=5 / deblock=1:-3:-3 / analyse=0x3:0x113 / me=umh / subme=8 / psy=1 / psy_rd=1.00:0.07 / mixed_ref=1 / me_range=32 / chroma_me=1 / trellis=1 / 8x8dct=1 / cqm=0 / deadzone=21,11 / fast_pskip=1 / chroma_qp_offset=-3 / threads=12 / lookahead_threads=2 / sliced_threads=0 / nr=0 / decimate=1 / interlaced=0 / bluray_compat=0 / constrained_intra=0 / bframes=3 / b_pyramid=2 / b_adapt=2 / b_bias=0 / direct=3 / weightb=1 / open_gop=0 / weightp=2 / keyint=240 / keyint_min=23 / scenecut=40 / intra_refresh=0 / rc_lookahead=50 / rc=2pass / mbtree=1 / bitrate=2995 / ratetol=1.0 / qcomp=0.60 / qpmin=0 / qpmax=69 / qpstep=4 / cplxblur=20.0 / qblur=0.5 / vbv_maxrate=40000 / vbv_bufsize=30000 / nal_hrd=none / filler=0 / ip_ratio=1.30 / aq=1:1.00\nDefault                                  : Yes\nForced                                   : No\nColor primaries                          : BT.709\nTransfer characteristics                 : BT.709\nMatrix coefficients                      : BT.709\n\nAudio\nID                                       : 2\nFormat                                   : AC-3\nFormat/Info                              : Audio Coding 3\nMode extension                           : CM (complete main)\nFormat settings, Endianness              : Big\nCodec ID                                 : A_AC3\nDuration                                 : 1h 49mn\nBit rate mode                            : Constant\nBit rate                                 : 640 Kbps\nChannel(s)                               : 6 channels\nChannel positions                        : Front: L C R, Side: L R, LFE\nSampling rate                            : 48.0 KHz\nBit depth                                : 16 bits\nCompression mode                         : Lossy\nStream size                              : 503 MiB (18%)\nLanguage                                 : English\nDefault                                  : Yes\nForced                                   : No\n\nText\nID                                       : 3\nFormat                                   : UTF-8\nCodec ID                                 : S_TEXT/UTF8\nCodec ID/Info                            : UTF-8 Plain Text\nLanguage                                 : English\nDefault                                  : No\nForced                                   : No\n\nMenu\n00:00:00.000                             : en:00:00:00.000\n00:09:40.455                             : en:00:09:40.455\n00:18:46.917                             : en:00:18:46.917\n00:28:32.836                             : en:00:28:32.836\n00:39:07.095                             : en:00:39:07.095\n00:47:33.476                             : en:00:47:33.476\n00:56:55.954                             : en:00:56:55.954\n01:06:05.503                             : en:01:06:05.503\n01:17:27.810                             : en:01:17:27.810\n01:26:11.958                             : en:01:26:11.958\n01:34:06.474                             : en:01:34:06.474\n01:44:53.412                             : en:01:44:53.412\n\n    ...................................................................\n\n    Ripper Notes.........: Thanks to ROVERS\n\n                           Seed, Share, but don't forget to keep the credits ;) \n                               \n                           Respect our work\n\n    Group Notes..........: We are currently Looking for Portuguese Android Modders.\n                           If you are interested, please contact us @ winteam [@] inbox [dot] com\n\n                           Neste momento procuramos Android Modders Portugueses.\n                           Pedimos aos interessados que nos contactem atraves do mail:  winteam [@] inbox [dot] com\n\n    ...................................................................\n\n    Group Greets.........: FLAWL3SS * ViSiON * D-ZON3 * CHD * DAA\n                           AMIABLE * DIAMOND * FraMeSToR * LEGiON\n                           CORE * KRaLiMaRKo * iNViNCiBLE * SPARKS\n\n    ___________________________________________________________________\n\n                     *** WiNTeaM  / Since 2013 ***","torrent":{"xt":"urn:btih:4c1f0b32129e71b3972ea11a99eb24c839879033","amp;dn":"Automata.2014.720p.BRRip.x264.AC3-WiNTeaM","amp;tr":["udp%3A%2F%2Ftracker.openbittorrent.com%3A80","udp%3A%2F%2Fopen.demonii.com%3A1337","udp%3A%2F%2Ftracker.coppersurfer.tk%3A6969","udp%3A%2F%2Fexodus.desync.com%3A6969"],"infoHash":"4c1f0b32129e71b3972ea11a99eb24c839879033","infoHashBuffer":{"type":"Buffer","data":[76,31,11,50,18,158,113,179,151,46,161,26,153,235,36,200,57,135,144,51]},"announce":[],"urlList":[]}}